#!OML:ASF H:\ManfredETheater\Project 1\Capture day 1\Session 1\subject.ASF
:FULLY-SPECIFIED
:DEGREES
49
root -1.67792 16.0919 -38.7693 20.6886 1.04483 2.60392
lowerback 14.7053 -1.61506 1.4037
upperback -1.82999 -1.96475 -0.676808
thorax -10.3458 -1.04056 -1.06894
lowerneck -21.1725 -0.312334 -0.693855
upperneck 5.36568 -0.00916158 -2.02694
head 4.97426 -0.176334 -0.53539
rclavicle -4.73356e-015 -2.6339e-015
rhumerus -64.9194 -0.787186 -77.0511
rradius 68.9793
rwrist -4.36264
rhand -23.8117 -9.07096
rfingers 7.12502
rthumb 2.65923 -39.0341
lclavicle -4.73356e-015 -2.6339e-015
lhumerus -42.183 -9.8564 95.1861
lradius 77.376
lwrist 0.462389
lhand -28.5406 -14.2374
lfingers 7.12502
lthumb -1.90799 15.7338
rfemur -58.1917 -11.826 18.9947
rtibia 86.4375
rfoot -12.8333 -16.0527
rtoes -5.65478
lfemur -26.7533 -0.947051 -25.4927
ltibia 60.829
lfoot -35.7914 -10.7303
ltoes -1.08491
50
root -1.69877 16.1489 -38.3956 20.4743 1.44127 2.77506
lowerback 14.6248 -1.84283 1.43929
upperback -1.68642 -2.25363 -0.593309
thorax -10.1475 -1.17575 -0.935073
lowerneck -21.1036 -0.115008 -0.594046
upperneck 5.40372 0.25556 -2.28804
head 4.97923 -0.0640496 -0.60747
rclavicle -3.8266e-015 3.27995e-015
rhumerus -66.0683 -0.216142 -76.7157
rradius 69.1085
rwrist -4.07062
rhand -23.6861 -8.59183
rfingers 7.12502
rthumb 2.78055 -38.5535
lclavicle -3.8266e-015 3.27995e-015
lhumerus -42.5029 -10.232 95.8451
lradius 78.6484
lwrist 1.03853
lhand -28.8673 -14.6845
lfingers 7.12502
lthumb -2.22354 15.2836
rfemur -60.5968 -11.1832 18.6155
rtibia 84.0933
rfoot -13.3701 -15.7695
rtoes -8.66804
lfemur -24.3451 -1.74287 -25.3754
ltibia 58.9664
lfoot -34.6049 -10.6771
ltoes -3.76819
51
root -1.72253 16.2061 -38.0172 20.233 1.8515 2.93194
lowerback 14.5531 -2.06116 1.46452
upperback -1.53773 -2.53147 -0.507002
thorax -9.94749 -1.30537 -0.796409
lowerneck -21.0305 0.0566409 -0.511612
upperneck 5.45152 0.488199 -2.52185
head 4.98713 0.0341381 -0.67139
rclavicle -1.26477e-014 6.4605e-015
rhumerus -67.1359 0.352195 -76.4703
rradius 69.1803
rwrist -3.60205
rhand -23.6041 -8.14486
rfingers 7.12502
rthumb 2.85966 -38.1054
lclavicle -1.26477e-014 6.4605e-015
lhumerus -42.83 -10.6737 96.5078
lradius 79.7675
lwrist 1.43961
lhand -29.131 -15.2253
lfingers 7.12502
lthumb -2.47825 14.7401
rfemur -62.6128 -10.4942 18.1062
rtibia 81.2385
rfoot -13.7443 -15.3829
rtoes -11.7041
lfemur -21.9675 -2.58292 -25.2393
ltibia 57.136
lfoot -33.1447 -10.8202
ltoes -6.28226
52
root -1.74943 16.2614 -37.6345 19.9504 2.28725 3.0879
lowerback 14.5103 -2.27436 1.46459
upperback -1.3911 -2.80628 -0.417681
thorax -9.7646 -1.4325 -0.641508
lowerneck -20.9125 0.202639 -0.448467
upperneck 5.49798 0.689064 -2.73377
head 4.98799 0.118348 -0.728412
rclavicle 5.98839e-015 6.21202e-015
rhumerus -68.139 0.913299 -76.3028
rradius 69.1931
rwrist -3.0454
rhand -23.5652 -7.74448
rfingers 7.12502
rthumb 2.89724 -37.7045
lclavicle 5.98839e-015 6.21202e-015
lhumerus -43.1718 -11.1493 97.1734
lradius 80.7139
lwrist 1.62704
lhand -29.3091 -15.8524
lfingers 7.12502
lthumb -2.65023 14.1109
rfemur -64.2107 -9.78403 17.449
rtibia 77.9261
rfoot -13.9071 -14.9042
rtoes -14.6024
lfemur -19.6167 -3.48976 -25.0972
ltibia 55.368
lfoot -31.4283 -11.1402
ltoes -8.43429
53
root -1.77938 16.3122 -37.2481 19.6289 2.72929 3.24643
lowerback 14.487 -2.47058 1.43313
upperback -1.23568 -3.06445 -0.336676
thorax -9.58093 -1.55065 -0.482408
lowerneck -20.7858 0.320385 -0.395548
upperneck 5.55326 0.852891 -2.9227
head 4.99014 0.185962 -0.780272
rclavicle 3.27995e-015 3.97569e-015
rhumerus -69.0601 1.42892 -76.207
rradius 69.1629
rwrist -2.51303
rhand -23.5403 -7.40499
rfingers 7.12502
rthumb 2.92131 -37.3647
lclavicle 3.27995e-015 3.97569e-015
lhumerus -43.4938 -11.6664 97.8281
lradius 81.4738
lwrist 1.59829
lhand -29.3636 -16.5195
lfingers 7.12502
lthumb -2.70288 13.4431
rfemur -65.4005 -9.04698 16.6321
rtibia 74.219
rfoot -13.78 -14.3031
rtoes -17.2341
lfemur -17.306 -4.46111 -24.9699
ltibia 53.697
lfoot -29.499 -11.5552
ltoes -10.1401
54
root -1.8122 16.3573 -36.8578 19.274 3.19556 3.41596
lowerback 14.4752 -2.65781 1.36862
upperback -1.08211 -3.31681 -0.262381
thorax -9.40342 -1.66505 -0.313891
lowerneck -20.6192 0.414052 -0.353941
upperneck 5.61534 0.985599 -3.09374
head 4.98811 0.239753 -0.82777
rclavicle 1.70458e-014 -8.15017e-015
rhumerus -69.9154 1.90536 -76.1701
rradius 69.1011
rwrist -2.07694
rhand -23.51 -7.12418
rfingers 7.12502
rthumb 2.95056 -37.0835
lclavicle 1.70458e-014 -8.15017e-015
lhumerus -43.8122 -12.2003 98.472
lradius 82.0554
lwrist 1.37764
lhand -29.3053 -17.1793
lfingers 7.12502
lthumb -2.64654 12.7841
rfemur -66.1929 -8.30619 15.6524
rtibia 70.1784
rfoot -13.2651 -13.5944
rtoes -19.5221
lfemur -15.0445 -5.52865 -24.8732
ltibia 52.1583
lfoot -27.4483 -11.9378
ltoes -11.3155
55
root -1.84762 16.3942 -36.4639 18.8988 3.69072 3.59838
lowerback 14.4556 -2.83867 1.27485
upperback -0.932365 -3.56667 -0.197778
thorax -9.22334 -1.77774 -0.141304
lowerneck -20.4195 0.48843 -0.316655
upperneck 5.69561 1.09258 -3.25065
head 4.98646 0.282074 -0.872695
rclavicle 3.06625e-014 -7.45443e-015
rhumerus -70.7078 2.33661 -76.1844
rradius 69.0293
rwrist -1.77437
rhand -23.4597 -6.8941
rfingers 7.12502
rthumb 2.99919 -36.8528
lclavicle 3.06625e-014 -7.45443e-015
lhumerus -44.1156 -12.7404 99.0924
lradius 82.4614
lwrist 0.99092
lhand -29.1248 -17.7827
lfingers 7.12502
lthumb -2.47221 12.1827
rfemur -66.6382 -7.56613 14.5074
rtibia 65.9389
rfoot -12.3827 -12.7446
rtoes -21.4241
lfemur -12.8888 -6.68727 -24.8206
ltibia 50.8807
lfoot -25.4353 -12.1753
ltoes -11.921
56
root -1.88568 16.4224 -36.0668 18.5196 4.24105 3.80406
lowerback 14.41 -3.02226 1.15
upperback -0.790126 -3.8265 -0.141762
thorax -9.03413 -1.8948 0.0393907
lowerneck -20.186 0.546711 -0.281727
upperneck 5.79884 1.17818 -3.39721
head 4.98658 0.314759 -0.916128
rclavicle 6.65929e-015 5.46658e-015
rhumerus -71.4447 2.72049 -76.2344
rradius 68.9714
rwrist -1.60909
rhand -23.3829 -6.70165
rfingers 7.12502
rthumb 3.07335 -36.6592
lclavicle 6.65929e-015 5.46658e-015
lhumerus -44.3952 -13.2857 99.688
lradius 82.7018
lwrist 0.512801
lhand -28.8551 -18.3101
lfingers 7.12502
lthumb -2.21175 11.6581
rfemur -66.7589 -6.8452 13.1965
rtibia 61.523
rfoot -11.0198 -11.8526
rtoes -23.015
lfemur -10.8461 -7.93557 -24.8253
ltibia 49.8403
lfoot -23.5333 -12.1395
ltoes -12.1757
57
root -1.92778 16.409 -35.6706 18.144 4.85526 4.03301
lowerback 14.3258 -3.21134 0.998654
upperback -0.655629 -4.09893 -0.0919146
thorax -8.82878 -2.01791 0.227677
lowerneck -19.9275 0.5922 -0.247212
upperneck 5.9318 1.24747 -3.54039
head 4.99197 0.339638 -0.960091
rclavicle 6.14742e-014 -7.15625e-015
rhumerus -72.1319 3.05447 -76.2987
rradius 68.9425
rwrist -1.54159
rhand -23.2831 -6.50551
rfingers 7.12502
rthumb 3.16967 -36.4617
lclavicle 6.14742e-014 -7.15625e-015
lhumerus -44.6409 -13.8337 100.257
lradius 82.7865
lwrist -0.0161426
lhand -28.5111 -18.7415
lfingers 7.12502
lthumb -1.8795 11.23
rfemur -66.7545 -6.14992 11.7173
rtibia 57.1257
rfoot -9.23981 -10.9867
rtoes -24.2873
lfemur -8.98029 -9.23758 -24.8893
ltibia 49.1925
lfoot -21.9168 -11.7287
ltoes -12.1718
58
root -1.96984 16.4153 -35.2676 17.7825 5.55453 4.29274
lowerback 14.191 -3.40999 0.821047
upperback -0.525028 -4.38899 -0.0466293
thorax -8.59575 -2.14977 0.424679
lowerneck -19.6648 0.623299 -0.213846
upperneck 6.09983 1.29953 -3.68466
head 5.00746 0.355595 -1.00599
rclavicle 1.33186e-014 -3.08116e-015
rhumerus -72.7738 3.32574 -76.3513
rradius 68.9766
rwrist -1.53443
rhand -23.1503 -6.30154
rfingers 7.12502
rthumb 3.29797 -36.2558
lclavicle 1.33186e-014 -3.08116e-015
lhumerus -44.8371 -14.3943 100.796
lradius 82.7337
lwrist -0.555894
lhand -28.1093 -19.0764
lfingers 7.12502
lthumb -1.49146 10.8981
rfemur -66.3186 -5.48165 10.0768
rtibia 52.6237
rfoot -7.30688 -10.3198
rtoes -25.3305
lfemur -7.25853 -10.5545 -25.0082
ltibia 48.8158
lfoot -20.5442 -10.9529
ltoes -11.9871
59
root -2.01381 16.409 -34.8633 17.4324 6.36808 4.5808
lowerback 14.0137 -3.6253 0.625889
upperback -0.393387 -4.70362 -0.000755446
thorax -8.33432 -2.29423 0.631852
lowerneck -19.4058 0.637799 -0.186491
upperneck 6.29448 1.33223 -3.82758
head 5.03141 0.361633 -1.05245
rclavicle -5.19325e-014 3.97569e-016
rhumerus -73.374 3.52033 -76.3663
rradius 69.0866
rwrist -1.52382
rhand -22.9904 -6.05891
rfingers 7.12502
rthumb 3.45237 -36.0107
lclavicle -5.19325e-014 3.97569e-016
lhumerus -44.9697 -14.9713 101.302
lradius 82.564
lwrist -1.07344
lhand -27.6643 -19.3269
lfingers 7.12502
lthumb -1.06166 10.6502
rfemur -65.6501 -4.85006 8.28831
rtibia 48.2364
rfoot -5.38063 -9.96797
rtoes -26.195
lfemur -5.75505 -11.8372 -25.1485
ltibia 48.8598
lfoot -19.4772 -9.86745
ltoes -11.736
60
root -2.05958 16.3905 -34.4587 17.086 7.30652 4.8887
lowerback 13.8156 -3.85686 0.419436
upperback -0.257862 -5.0402 0.0509131
thorax -8.05323 -2.45027 0.851036
lowerneck -19.1581 0.630017 -0.176458
upperneck 6.50965 1.33971 -3.96135
head 5.06277 0.35512 -1.09578
rclavicle -5.26779e-015 -1.78906e-015
rhumerus -73.9382 3.6268 -76.321
rradius 69.2773
rwrist -1.45567
rhand -22.8177 -5.76244
rfingers 7.12502
rthumb 3.61913 -35.7115
lclavicle -5.26779e-015 -1.78906e-015
lhumerus -45.0356 -15.5644 101.774
lradius 82.2977
lwrist -1.56927
lhand -27.2061 -19.5335
lfingers 7.12502
lthumb -0.619189 10.4453
rfemur -64.7294 -4.24528 6.37915
rtibia 43.9767
rfoot -3.62864 -9.98909
rtoes -26.9502
lfemur -4.46557 -13.0214 -25.2716
ltibia 49.2746
lfoot -18.657 -8.54448
ltoes -11.5552
61
root -2.10734 16.3608 -34.0546 16.7295 8.38536 5.20017
lowerback 13.6246 -4.10438 0.219669
upperback -0.113417 -5.39479 0.111074
thorax -7.76377 -2.61658 1.07541
lowerneck -18.9332 0.592283 -0.191136
upperneck 6.73779 1.31185 -4.07381
head 5.10051 0.331725 -1.13189
rclavicle 5.13858e-014 -1.59028e-014
rhumerus -74.4686 3.62443 -76.2021
rradius 69.5465
rwrist -1.30484
rhand -22.6406 -5.40038
rfingers 7.12502
rthumb 3.79017 -35.3464
lclavicle 5.13858e-014 -1.59028e-014
lhumerus -45.0335 -16.1758 102.208
lradius 81.9642
lwrist -2.04455
lhand -26.7353 -19.7279
lfingers 7.12502
lthumb -0.164442 10.2518
rfemur -63.6103 -3.65664 4.39696
rtibia 40.0423
rfoot -2.30686 -10.4217
rtoes -27.774
lfemur -3.44447 -14.0719 -25.3271
ltibia 50.1615
lfoot -18.0919 -7.10423
ltoes -11.4746
62
root -2.15747 16.3208 -33.6517 16.3442 9.60522 5.48692
lowerback 13.4691 -4.36377 0.0447322
upperback 0.040781 -5.75866 0.185133
thorax -7.482 -2.78918 1.30094
lowerneck -18.7202 0.517582 -0.240394
upperneck 6.96871 1.23912 -4.15012
head 5.13928 0.287841 -1.15539
rclavicle 1.86858e-014 -9.93923e-016
rhumerus -74.9676 3.50598 -76.0072
rradius 69.862
rwrist -1.04739
rhand -22.4889 -4.97959
rfingers 7.12502
rthumb 3.93671 -34.923
lclavicle 1.86858e-014 -9.93923e-016
lhumerus -44.971 -16.7893 102.596
lradius 81.5885
lwrist -2.52522
lhand -26.2766 -19.932
lfingers 7.12502
lthumb 0.278564 10.0476
rfemur -62.3281 -3.07361 2.42619
rtibia 36.5548
rfoot -1.44721 -11.2427
rtoes -28.5597
lfemur -2.69597 -14.9683 -25.2624
ltibia 51.5115
lfoot -17.75 -5.66811
ltoes -11.4917
